<?xml version="1.0" encoding="iso-8859-1"?>
<!-- Uploaded to: SVG Repo, www.svgrepo.com, Generator: SVG Repo Mixer Tools -->
<svg fill="#000000" height="800px" width="800px" version="1.1" id="Layer_1" xmlns="http://www.w3.org/2000/svg" xmlns:xlink="http://www.w3.org/1999/xlink" 
	 viewBox="0 0 512 512" xml:space="preserve">
<g>
	<g>
		<path d="M443.669,323.738c-0.263-9.033-7.524-16.295-16.56-16.559c-51.149-1.476-99.268,19.031-134.112,54.161
			c-7.312,7.354-13.975,15.275-19.97,23.7V255.104c57.812-8.306,102.389-58.157,102.389-118.23V66.37
			c0-27.228-30.412-43.5-53.062-28.398l-17.694,11.796l-19.245-32.876c-13.179-22.513-45.719-22.534-58.909,0l-19.245,32.876
			l-17.693-11.795c-22.655-15.102-53.063,1.172-53.063,28.397v70.503c0,60.073,44.577,109.924,102.389,118.23v129.827
			c-5.973-8.38-12.605-16.259-19.878-23.575c-34.463-34.745-82.444-55.675-134.127-54.176c-9.034,0.264-16.296,7.526-16.56,16.559
			c-1.486,50.795,18.799,99.04,54.161,134.114c35.608,35.403,83.27,55.267,133.507,54.099
			c50.646,1.176,98.185-18.981,133.491-54.084C424.751,422.898,445.159,374.702,443.669,323.738z M146.543,433.634
			c-24.062-23.864-40.781-57.115-43.664-91.908c35.093,2.91,68.26,19.82,91.924,43.679c23.94,24.077,40.642,56.942,43.682,91.926
			C204.714,474.398,171.547,458.494,146.543,433.634z M255.967,34.139l20.249,34.593l-20.253,13.503l-20.251-13.501L255.967,34.139z
			 M255.963,222.198c-47.048,0-85.324-38.277-85.324-85.324l0.007-70.5l75.852,50.569c5.733,3.82,13.199,3.82,18.932,0
			l75.859-50.566v70.496C341.288,183.921,303.011,222.198,255.963,222.198z M365.444,433.65
			c-24.181,24.042-57.082,40.657-91.926,43.682c2.934-33.767,18.834-66.936,43.698-91.941c23.962-24.16,57.254-40.792,91.908-43.663
			C406.215,376.815,389.303,409.988,365.444,433.65z"/>
	</g>
</g>
</svg>